<?xml version="1.0" encoding="iso-8859-1"?>
<!-- Generator: Adobe Illustrator 19.0.0, SVG Export Plug-In . SVG Version: 6.00 Build 0)  -->
<svg version="1.1" id="Capa_1" xmlns="http://www.w3.org/2000/svg" xmlns:xlink="http://www.w3.org/1999/xlink" x="0px" y="0px"
	 viewBox="0 0 512 512" style="enable-background:new 0 0 512 512;" xml:space="preserve">
<g>
	<g>
		<path d="M482,30c-16.569,0-30,13.431-30,30v60h45c8.291,0,15-6.709,15-15V60C512,43.431,498.569,30,482,30z"/>
	</g>
</g>
<g>
	<g>
		<path d="M272,452v-30H15c-8.284,0-15,6.716-15,15v15c0,33,27,60,60,60h235.408C281.016,496.041,272,475.134,272,452z"/>
	</g>
</g>
<g>
	<g>
		<path d="M242,197.13V240h42.87C279.416,219.016,262.984,202.584,242,197.13z"/>
	</g>
</g>
<g>
	<g>
		<path d="M242,150v16.516c37.573,6.361,67.123,35.911,73.484,73.484H332v-90H242z"/>
	</g>
</g>
<g>
	<g>
		<path d="M227,270c-8.291,0-15-6.709-15-15v-57.87c-25.807,6.707-45,29.989-45,57.87c0,33.091,26.909,60,60,60
			c27.881,0,51.163-19.193,57.87-45H227z"/>
	</g>
</g>
<g>
	<g>
		<path d="M120,0C87.001,0,60,26.999,60,60v332h227c8.291,0,15,6.709,15,15v45c0,33.091,26.909,60,60,60c32.999,0,60-27.001,60-60
			v-45V60c0-33.001,27.001-60,60-60H120z M362,255c0,8.291-6.709,15-15,15h-31.516c-7.192,42.477-43.991,75-88.484,75
			c-49.629,0-90-40.371-90-90c0-44.493,32.523-81.292,75-88.484V135c0-8.291,6.709-15,15-15h120c8.291,0,15,6.709,15,15V255z"/>
	</g>
</g>
<g>
</g>
<g>
</g>
<g>
</g>
<g>
</g>
<g>
</g>
<g>
</g>
<g>
</g>
<g>
</g>
<g>
</g>
<g>
</g>
<g>
</g>
<g>
</g>
<g>
</g>
<g>
</g>
<g>
</g>
</svg>
