<svg id="Capa_1" enable-background="new 0 0 512 512" height="512" viewBox="0 0 512 512" width="512" xmlns="http://www.w3.org/2000/svg"><g><path d="m285.78 175.179c-1.023-29.388-5.033-56.684-11.564-78.058-7.943-25.994-16.519-32.669-18.239-32.942-.007 0-.013 0-.02 0-1.657.275-10.231 6.952-18.173 32.942-6.531 21.374-10.541 48.67-11.564 78.058z"/><path d="m256.023 316.179h.02c1.657-.275 10.231-6.952 18.173-32.941 6.531-21.374 10.541-48.67 11.564-78.058h-59.56c1.023 29.388 5.033 56.684 11.564 78.058 7.943 25.994 16.519 32.668 18.239 32.941z"/><path d="m296.498 70.856c11.748 27.032 18.016 65.676 19.3 104.323h65.306c-5.805-48.703-39.493-88.97-84.606-104.323z"/><path d="m215.502 309.502c-11.748-27.032-18.016-65.676-19.3-104.323h-65.306c5.805 48.704 39.493 88.971 84.606 104.323z"/><path d="m196.202 175.179c1.284-38.647 7.551-77.291 19.3-104.323-45.113 15.353-78.801 55.62-84.605 104.323z"/><path d="m315.798 205.179c-1.284 38.647-7.551 77.291-19.3 104.323 45.113-15.353 78.801-55.62 84.605-104.323z"/><path d="m412 190.179c0 52.316-25.888 98.697-65.524 127.013h165.524v-237.025c0-24.853-20.147-45-45-45h-193.5c77.811 8.726 138.5 74.91 138.5 155.012z"/><path d="m0 347.192v14.308c0 24.853 20.147 45 45 45h110.667v40.333h-32.577c-8.077 0-15.027 6.207-15.407 14.275-.406 8.614 6.458 15.725 14.983 15.725h266.244c8.077 0 15.027-6.207 15.407-14.275.406-8.614-6.458-15.725-14.983-15.725h-33v-40.333h110.666c24.853 0 45-20.147 45-45v-14.308z"/><path d="m165.524 317.192c-39.636-28.315-65.524-74.697-65.524-127.013 0-80.102 60.689-146.286 138.5-155.013h-193.5c-24.853 0-45 20.147-45 45v237.026z"/></g></svg>